<?xml version="1.0" encoding="UTF-8"?>
<svg width="300px" height="309px" viewBox="0 0 300 309" version="1.1" xmlns="http://www.w3.org/2000/svg" xmlns:xlink="http://www.w3.org/1999/xlink">
    <!-- Generator: Sketch 55.2 (78181) - https://sketchapp.com -->
    <title>aws-cloud</title>
    <desc>Created with Sketch.</desc>
    <g id="Page-1" stroke="none" stroke-width="1" fill="none" fill-rule="evenodd">
        <g id="aws-cloud">
            <g id="Fill-10">
                <g id="path-1-link" fill="#000000" fill-rule="nonzero">
                    <path d="M299.637116,149.753189 C299.049552,66.9223853 231.58389,0.250939269 148.941579,0.839843227 C66.2992675,1.42457056 -0.224625999,69.0482868 0.362937832,151.87909 C0.667137545,194.785547 18.9149532,233.356668 47.9264383,260.488016 L40.2131003,308.81573 L82.7177178,284.81685 C103.249115,295.19576 126.484973,300.967854 151.058475,300.792436 C233.700787,300.207709 300.220513,232.583992 299.637116,149.753189 L299.637116,149.753189 Z" id="path-1"></path>
                </g>
                <g id="path-1-link" fill="#FFFFFF">
                    <path d="M299.637116,149.753189 C299.049552,66.9223853 231.58389,0.250939269 148.941579,0.839843227 C66.2992675,1.42457056 -0.224625999,69.0482868 0.362937832,151.87909 C0.667137545,194.785547 18.9149532,233.356668 47.9264383,260.488016 L40.2131003,308.81573 L82.7177178,284.81685 C103.249115,295.19576 126.484973,300.967854 151.058475,300.792436 C233.700787,300.207709 300.220513,232.583992 299.637116,149.753189 L299.637116,149.753189 Z" id="path-1"></path>
                </g>
            </g>
            <g id="amazon-web-services-cloud" transform="translate(49.000000, 95.000000)">
                <path d="M57.4970993,43.7648936 C57.4970993,46.2446809 57.7654097,48.2553191 58.2349529,49.7297872 C58.7715736,51.2042553 59.4423495,52.812766 60.3814358,54.5553191 C60.7168238,55.0914894 60.850979,55.6276596 60.850979,56.0968085 C60.850979,56.7670213 60.4485134,57.437234 59.5765047,58.1074468 L55.3506164,60.9223404 C54.7469181,61.3244681 54.1432197,61.5255319 53.606599,61.5255319 C52.9358231,61.5255319 52.2650471,61.1904255 51.5942712,60.587234 C50.6551849,59.5819149 49.8502538,58.5095745 49.1794779,57.437234 C48.508702,56.2978723 47.837926,55.0244681 47.1000725,53.4829787 C41.8680203,59.6489362 35.2944162,62.7319149 27.3792603,62.7319149 C21.7447426,62.7319149 17.2505439,61.1234043 13.9637418,57.906383 C10.6769398,54.6893617 9,50.4 9,45.0382979 C9,39.3414894 11.0123278,34.7170213 15.1040609,31.2319149 C19.1957941,27.7468085 24.629079,26.0042553 31.5380711,26.0042553 C33.8187092,26.0042553 36.1664249,26.2053191 38.6482959,26.5404255 C41.1301668,26.8755319 43.6791153,27.4117021 46.362219,28.0148936 L46.362219,23.1223404 C46.362219,18.0287234 45.2889775,14.4765957 43.2095722,12.3989362 C41.0630892,10.3212766 37.4408992,9.31595745 32.2759246,9.31595745 C29.9282088,9.31595745 27.5134155,9.58404255 25.0315446,10.187234 C22.5496737,10.7904255 20.1348803,11.5276596 17.7871646,12.4659574 C16.7139231,12.9351064 15.908992,13.2031915 15.4394489,13.337234 C14.9699057,13.4712766 14.6345178,13.5382979 14.3662074,13.5382979 C13.4271211,13.5382979 12.957578,12.8680851 12.957578,11.4606383 L12.957578,8.17659574 C12.957578,7.10425532 13.0917331,6.3 13.4271211,5.83085106 C13.7625091,5.36170213 14.3662074,4.89255319 15.3052937,4.42340426 C17.6530094,3.21702128 20.4702683,2.21170213 23.7570703,1.40744681 C27.0438724,0.536170213 30.5319072,0.134042553 34.2211748,0.134042553 C42.2034083,0.134042553 48.0391588,1.94361702 51.795504,5.56276596 C55.4847716,9.18191489 57.3629442,14.6776596 57.3629442,22.05 L57.3629442,43.7648936 L57.4970993,43.7648936 Z M30.2635968,53.9521277 C32.4771574,53.9521277 34.7577955,53.55 37.1725888,52.7457447 C39.5873822,51.9414894 41.7338651,50.4670213 43.5449601,48.456383 C44.6182016,47.1829787 45.4231327,45.7755319 45.8255983,44.1670213 C46.2280638,42.5585106 46.4963742,40.6148936 46.4963742,38.3361702 L46.4963742,35.5212766 C44.551124,35.0521277 42.4717186,34.65 40.3252357,34.3819149 C38.1787527,34.1138298 36.0993474,33.9797872 34.019942,33.9797872 C29.5257433,33.9797872 26.2389413,34.8510638 24.0253807,36.6606383 C21.8118202,38.4702128 20.7385787,41.0170213 20.7385787,44.3680851 C20.7385787,47.5180851 21.5435098,49.8638298 23.2204496,51.4723404 C24.8303118,53.1478723 27.1780276,53.9521277 30.2635968,53.9521277 Z M84.1269036,61.1904255 C82.9195069,61.1904255 82.1145758,60.9893617 81.577955,60.5202128 C81.0413343,60.1180851 80.5717912,59.1797872 80.1693256,57.906383 L64.4060914,6.09893617 C64.0036258,4.75851064 63.802393,3.88723404 63.802393,3.41808511 C63.802393,2.34574468 64.3390138,1.74255319 65.4122553,1.74255319 L71.9858593,1.74255319 C73.2603336,1.74255319 74.1323423,1.94361702 74.6018854,2.41276596 C75.1385062,2.81489362 75.5409717,3.75319149 75.9434373,5.02659574 L87.2124728,49.3946809 L97.6765772,5.02659574 C98.0119652,3.68617021 98.4144307,2.81489362 98.9510515,2.41276596 C99.4876722,2.0106383 100.426759,1.74255319 101.634155,1.74255319 L107.000363,1.74255319 C108.274837,1.74255319 109.146846,1.94361702 109.683466,2.41276596 C110.220087,2.81489362 110.68963,3.75319149 110.957941,5.02659574 L121.5562,49.9308511 L133.160624,5.02659574 C133.563089,3.68617021 134.032632,2.81489362 134.502175,2.41276596 C135.038796,2.0106383 135.910805,1.74255319 137.118202,1.74255319 L143.356418,1.74255319 C144.429659,1.74255319 145.033358,2.2787234 145.033358,3.41808511 C145.033358,3.75319149 144.96628,4.08829787 144.899202,4.49042553 C144.832125,4.89255319 144.69797,5.4287234 144.429659,6.16595745 L128.263959,57.9734043 C127.861494,59.3138298 127.391951,60.1851064 126.85533,60.587234 C126.318709,60.9893617 125.446701,61.2574468 124.306381,61.2574468 L118.537708,61.2574468 C117.263234,61.2574468 116.391226,61.056383 115.854605,60.587234 C115.317984,60.1180851 114.848441,59.2468085 114.580131,57.906383 L104.183104,14.6776596 L93.8531545,57.8393617 C93.5177665,59.1797872 93.1153009,60.0510638 92.5786802,60.5202128 C92.0420595,60.9893617 91.1029732,61.1904255 89.8955765,61.1904255 L84.1269036,61.1904255 Z M170.32161,63 C166.833575,63 163.34554,62.5978723 159.991661,61.793617 C156.637781,60.9893617 154.021755,60.1180851 152.277737,59.112766 C151.204496,58.5095745 150.466642,57.8393617 150.198332,57.2361702 C149.930022,56.6329787 149.795867,55.962766 149.795867,55.3595745 L149.795867,51.9414894 C149.795867,50.5340426 150.332487,49.8638298 151.338651,49.8638298 C151.741117,49.8638298 152.143582,49.9308511 152.546048,50.0648936 C152.948513,50.1989362 153.552212,50.4670213 154.222988,50.7351064 C156.503626,51.7404255 158.985497,52.5446809 161.601523,53.0808511 C164.284627,53.6170213 166.900653,53.8851064 169.583756,53.8851064 C173.809645,53.8851064 177.096447,53.1478723 179.377085,51.6734043 C181.657723,50.1989362 182.86512,48.0542553 182.86512,45.306383 C182.86512,43.4297872 182.261421,41.8882979 181.054025,40.6148936 C179.846628,39.3414894 177.56599,38.2021277 174.279188,37.1297872 L164.552937,34.1138298 C159.656273,32.5723404 156.034083,30.293617 153.820522,27.2776596 C151.606962,24.3287234 150.466642,21.0446809 150.466642,17.5595745 C150.466642,14.7446809 151.070341,12.2648936 152.277737,10.1202128 C153.485134,7.97553191 155.094996,6.09893617 157.107324,4.62446809 C159.119652,3.08297872 161.40029,1.94361702 164.083394,1.1393617 C166.766497,0.335106383 169.583756,0 172.53517,0 C174.010877,0 175.553662,0.0670212766 177.029369,0.268085106 C178.572154,0.469148936 179.980783,0.737234043 181.389413,1.00531915 C182.730964,1.34042553 184.005439,1.67553191 185.212835,2.07765957 C186.420232,2.47978723 187.359318,2.88191489 188.030094,3.28404255 C188.969181,3.82021277 189.639956,4.35638298 190.042422,4.95957447 C190.444888,5.49574468 190.64612,6.23297872 190.64612,7.1712766 L190.64612,10.3212766 C190.64612,11.7287234 190.1095,12.4659574 189.103336,12.4659574 C188.566715,12.4659574 187.694706,12.1978723 186.554387,11.6617021 C182.730964,9.91914894 178.437999,9.04787234 173.675489,9.04787234 C169.852067,9.04787234 166.833575,9.65106383 164.75417,10.9244681 C162.674764,12.1978723 161.601523,14.1414894 161.601523,16.8893617 C161.601523,18.7659574 162.272299,20.3744681 163.613851,21.6478723 C164.955402,22.9212766 167.437273,24.1946809 170.992386,25.3340426 L180.517404,28.35 C185.346991,29.8914894 188.835025,32.0361702 190.914431,34.7840426 C192.993836,37.5319149 194,40.6819149 194,44.1670213 C194,47.0489362 193.396302,49.662766 192.255983,51.9414894 C191.048586,54.2202128 189.438724,56.2308511 187.359318,57.8393617 C185.279913,59.5148936 182.798042,60.7212766 179.913706,61.5925532 C176.895214,62.5308511 173.742567,63 170.32161,63 Z" id="Shape" fill="#252F3E" fill-rule="nonzero"></path>
                <g id="Group" transform="translate(0.000000, 75.000000)" fill="#FF9900">
                    <path d="M183.17053,20.7676471 C161.055629,37.2058824 128.925166,45.9323529 101.298344,45.9323529 C62.5804636,45.9323529 27.6940397,31.5235294 1.34437086,7.57647059 C-0.739403974,5.68235294 1.14271523,3.11176471 3.62980132,4.6 C32.1304636,21.2411765 67.2857616,31.3205882 103.650993,31.3205882 C128.185762,31.3205882 155.140397,26.1794118 179.94404,15.6264706 C183.64106,13.9352941 186.800331,18.0617647 183.17053,20.7676471 Z" id="Path"></path>
                    <path d="M192.37947,10.2147059 C189.556291,6.56176471 173.692715,8.45588235 166.500331,9.33529412 C164.349338,9.60588235 164.013245,7.71176471 165.962583,6.29117647 C178.599669,-2.63823529 199.370199,-0.0676470588 201.790066,2.90882353 C204.209934,5.95294118 201.117881,26.8558824 189.287417,36.8676471 C187.472517,38.4235294 185.724834,37.6117647 186.531457,35.5823529 C189.220199,28.8852941 195.202649,13.8 192.37947,10.2147059 Z" id="Path"></path>
                </g>
            </g>
        </g>
    </g>
</svg>